<svg width="192" height="192" viewBox="0 0 192 192" fill="none" xmlns="http://www.w3.org/2000/svg">
<circle cx="96" cy="96" r="95.5" fill="white" fill-opacity="0.4" stroke="url(#paint0_linear_1_151)"/>
<path d="M60.7332 81L62.9278 74.821H71.7488L73.9434 81H76.7133L68.702 59.1818H65.9747L57.9633 81H60.7332ZM63.7588 72.4773L67.2531 62.6335H67.4236L70.9179 72.4773H63.7588ZM91.3618 68.3011C90.5734 65.9787 88.805 64.4233 85.5663 64.4233C82.1146 64.4233 79.5578 66.3835 79.5578 69.1534C79.5578 71.4119 80.9001 72.9247 83.9044 73.6278L86.6317 74.267C88.2829 74.6506 89.0606 75.4389 89.0606 76.5682C89.0606 77.9744 87.5692 79.125 85.2254 79.125C83.1693 79.125 81.8802 78.2408 81.4328 76.483L79.0464 77.0795C79.6324 79.8601 81.9229 81.3409 85.268 81.3409C89.0713 81.3409 91.6601 79.2635 91.6601 76.4403C91.6601 74.1605 90.2325 72.7223 87.3135 72.0085L84.8845 71.4119C82.9456 70.9325 82.072 70.2827 82.072 69.0256C82.072 67.6193 83.5635 66.5966 85.5663 66.5966C87.7609 66.5966 88.6665 67.8111 89.1032 68.9403L91.3618 68.3011ZM95.4447 81H97.9589V74.8743L99.7167 73.2443L105.842 81H109.038L101.613 71.625L108.527 64.6364H105.416L98.2572 71.9233H97.9589V59.1818H95.4447V81ZM125.016 81.3835C127.871 81.3835 129.362 79.8494 129.874 78.7841H130.002V81H132.516V70.2188C132.516 65.0199 128.553 64.4233 126.465 64.4233C123.993 64.4233 121.181 65.2756 119.902 68.2585L122.289 69.1108C122.843 67.9176 124.153 66.6392 126.55 66.6392C128.862 66.6392 130.002 67.8643 130.002 69.9631V70.0483C130.002 71.2628 128.766 71.1562 125.783 71.5398C122.747 71.9339 119.434 72.6051 119.434 76.3551C119.434 79.5511 121.905 81.3835 125.016 81.3835ZM125.399 79.125C123.397 79.125 121.948 78.2301 121.948 76.483C121.948 74.5653 123.695 73.9688 125.655 73.7131C126.72 73.5852 129.576 73.2869 130.002 72.7756V75.0767C130.002 77.1222 128.382 79.125 125.399 79.125ZM53.6088 106.091C53.6088 99.1875 49.5605 94.8835 43.9781 94.8835C38.3957 94.8835 34.3474 99.1875 34.3474 106.091C34.3474 112.994 38.3957 117.298 43.9781 117.298C45.4056 117.298 46.7267 117.021 47.9092 116.489L49.8161 119.045H52.7139L49.8694 115.263C52.1919 113.357 53.6088 110.182 53.6088 106.091ZM43.1258 110.182L46.3644 114.422C45.6187 114.688 44.8197 114.827 43.9781 114.827C40.015 114.827 36.9042 111.759 36.9042 106.091C36.9042 100.423 40.015 97.3551 43.9781 97.3551C47.9411 97.3551 51.0519 100.423 51.0519 106.091C51.0519 109.383 50.0079 111.79 48.346 113.239L46.0235 110.182H43.1258ZM68.0228 110.31C68.0228 113.378 65.6791 114.784 63.8041 114.784C61.716 114.784 60.2245 113.25 60.2245 110.864V100.636H57.7103V111.034C57.7103 115.21 59.9262 117.213 62.9944 117.213C65.466 117.213 67.0853 115.892 67.8524 114.23H68.0228V117H70.537V100.636H68.0228V110.31ZM82.0028 117.341C85.3266 117.341 87.7556 115.679 88.5226 113.207L86.0937 112.526C85.4545 114.23 83.9736 115.082 82.0028 115.082C79.0518 115.082 77.017 113.175 76.8998 109.67H88.7783V108.605C88.7783 102.511 85.1562 100.423 81.7471 100.423C77.3153 100.423 74.3749 103.918 74.3749 108.946C74.3749 113.974 77.2726 117.341 82.0028 117.341ZM76.8998 107.497C77.0702 104.951 78.8707 102.682 81.7471 102.682C84.4743 102.682 86.2215 104.727 86.2215 107.497H76.8998ZM104.194 104.301C103.405 101.979 101.637 100.423 98.3983 100.423C94.9466 100.423 92.3898 102.384 92.3898 105.153C92.3898 107.412 93.7322 108.925 96.7364 109.628L99.4637 110.267C101.115 110.651 101.893 111.439 101.893 112.568C101.893 113.974 100.401 115.125 98.0574 115.125C96.0013 115.125 94.7123 114.241 94.2648 112.483L91.8785 113.08C92.4644 115.86 94.7549 117.341 98.1001 117.341C101.903 117.341 104.492 115.263 104.492 112.44C104.492 110.161 103.065 108.722 100.146 108.009L97.7165 107.412C95.7776 106.933 94.904 106.283 94.904 105.026C94.904 103.619 96.3955 102.597 98.3983 102.597C100.593 102.597 101.498 103.811 101.935 104.94L104.194 104.301ZM115.393 100.636H111.899V96.7159H109.385V100.636H106.913V102.767H109.385V112.994C109.385 115.849 111.686 117.213 113.816 117.213C114.754 117.213 115.351 117.043 115.691 116.915L115.18 114.656C114.967 114.699 114.626 114.784 114.072 114.784C112.964 114.784 111.899 114.443 111.899 112.312V102.767H115.393V100.636ZM119.175 117H121.689V100.636H119.175V117ZM120.454 97.9091C121.434 97.9091 122.243 97.142 122.243 96.2045C122.243 95.267 121.434 94.5 120.454 94.5C119.473 94.5 118.664 95.267 118.664 96.2045C118.664 97.142 119.473 97.9091 120.454 97.9091ZM132.942 117.341C137.374 117.341 140.357 113.974 140.357 108.903C140.357 103.79 137.374 100.423 132.942 100.423C128.51 100.423 125.527 103.79 125.527 108.903C125.527 113.974 128.51 117.341 132.942 117.341ZM132.942 115.082C129.576 115.082 128.041 112.185 128.041 108.903C128.041 105.622 129.576 102.682 132.942 102.682C136.309 102.682 137.843 105.622 137.843 108.903C137.843 112.185 136.309 115.082 132.942 115.082ZM146.709 107.156C146.709 104.301 148.477 102.682 150.885 102.682C153.218 102.682 154.635 104.205 154.635 106.773V117H157.149V106.602C157.149 102.426 154.923 100.423 151.609 100.423C149.138 100.423 147.604 101.531 146.837 103.193H146.624V100.636H144.195V117H146.709V107.156Z" fill="#0D224E"/>
<defs>
<linearGradient id="paint0_linear_1_151" x1="77" y1="51.5" x2="155.5" y2="157" gradientUnits="userSpaceOnUse">
<stop stop-color="white"/>
<stop offset="1" stop-color="white" stop-opacity="0"/>
</linearGradient>
</defs>
</svg>
